<svg width="682.667" height="682.667" viewBox="0 0 512 512" xmlns="http://www.w3.org/2000/svg" xmlns:xlink="http://www.w3.org/1999/xlink" overflow="hidden"><g transform="matrix(0.1 0 0 -0.1 0 512)"><path d="M625 4465C454 4427 307 4313 229 4159 201 4103 163 3983 171 3977 173 3975 712 3626 1368 3202L2560 2431 3753 3202C4408 3626 4947 3974 4949 3976 4957 3983 4919 4103 4891 4159 4824 4290 4705 4395 4560 4448L4485 4475 2585 4477C1026 4478 674 4476 625 4465Z" fill="#FFFFFF"/><path d="M160 2389C160 1056 159 1099 221 972 289 834 428 713 573 668L645 645 2560 645 4475 645 4550 670C4698 718 4834 837 4901 978 4962 1105 4960 1063 4958 2389L4955 3599 3785 2842 2615 2085 2560 2085 2505 2085 1355 2829C723 3238 195 3580 183 3588L160 3602 160 2389Z" fill="#FFFFFF"/></g></svg>