<svg width="379" height="379" xmlns="http://www.w3.org/2000/svg" xmlns:xlink="http://www.w3.org/1999/xlink" overflow="hidden"><g transform="translate(-45 -3832)"><g><g><g><path d="M234 3848C137.865 3848 60 3925.86 60 4022 60 4099 109.807 4164.03 178.973 4187.08 187.673 4188.6 190.935 4183.38 190.935 4178.82 190.935 4174.69 190.717 4160.98 190.717 4146.41 147 4154.46 135.69 4135.75 132.21 4125.96 130.253 4120.96 121.77 4105.52 114.375 4101.39 108.285 4098.12 99.585 4090.08 114.158 4089.86 127.86 4089.64 137.647 4102.48 140.91 4107.69 156.57 4134.01 181.583 4126.62 191.588 4122.05 193.11 4110.74 197.678 4103.13 202.68 4098.78 163.965 4094.43 123.51 4079.42 123.51 4012.86 123.51 3993.94 130.253 3978.28 141.345 3966.1 139.605 3961.75 133.515 3943.92 143.085 3919.99 143.085 3919.99 157.658 3915.43 190.935 3937.83 204.855 3933.91 219.645 3931.96 234.435 3931.96 249.225 3931.96 264.015 3933.91 277.935 3937.83 311.213 3915.21 325.785 3919.99 325.785 3919.99 335.355 3943.92 329.265 3961.75 327.525 3966.1 338.618 3978.28 345.36 3993.73 345.36 4012.86 345.36 4079.64 304.688 4094.43 265.973 4098.78 272.28 4104.21 277.717 4114.65 277.717 4130.97 277.717 4154.24 277.5 4172.94 277.5 4178.82 277.5 4183.38 280.763 4188.82 289.463 4187.08 358.193 4164.03 408 4098.78 408 4022 408 3925.86 330.135 3848 234 3848Z" fill="#FFFFFF" fill-rule="evenodd"/></g></g></g></g></svg>