<svg width="380" height="379" xmlns="http://www.w3.org/2000/svg" xmlns:xlink="http://www.w3.org/1999/xlink" overflow="hidden"><g transform="translate(-528 -3832)"><path d="M618.34 3986.78 618.34 4125.53 661.184 4125.53 661.184 3986.78ZM771.372 3982.54C742.016 3982.54 729.662 4005.47 729.662 4005.47L729.662 3986.78 688.574 3986.78 688.574 4125.53 729.662 4125.53 729.662 4052.7C729.662 4033.18 738.619 4021.57 755.762 4021.57 771.52 4021.57 779.085 4032.73 779.085 4052.7L779.085 4125.53 821.72 4125.53 821.72 4037.68C821.72 4000.52 800.713 3982.54 771.372 3982.54ZM639.556 3917.41C625.561 3917.41 614.22 3928.87 614.22 3943.01 614.22 3957.15 625.561 3968.61 639.556 3968.61 653.552 3968.61 664.886 3957.15 664.886 3943.01 664.886 3928.87 653.552 3917.41 639.556 3917.41ZM588.889 3855 847.111 3855C867.484 3855 884 3871.57 884 3892L884 4151C884 4171.43 867.484 4188 847.111 4188L588.889 4188C568.516 4188 552 4171.43 552 4151L552 3892C552 3871.57 568.516 3855 588.889 3855Z" fill="#FFFFFF" fill-rule="evenodd"/></g></svg>