<svg width="455" height="455" xmlns="http://www.w3.org/2000/svg" xmlns:xlink="http://www.w3.org/1999/xlink" overflow="hidden"><g transform="translate(-453 1)"><path d="M583.942 124.024 587.424 162.439 679.868 162.439 680 162.439 733.848 162.439 730.361 201.776 680 201.776 679.868 201.776 590.841 201.776 594.274 240.19 679.868 240.19 680 240.19 727.04 240.19 722.593 290.01 679.868 301.574 679.868 301.577 679.832 301.587 637.168 290.035 634.441 259.397 595.985 259.397 601.353 319.713 679.824 341.558 680 341.509 680 341.502 758.401 319.713 758.977 313.223 767.979 212.091 768.914 201.776 775.83 124.024 680 124.024 679.868 124.024ZM527 60 833 60 805.122 373.163 679.813 408 554.848 373.213Z" fill="#FFFFFF" fill-rule="evenodd"/></g></svg>