<svg width="455" height="455" xmlns="http://www.w3.org/2000/svg" xmlns:xlink="http://www.w3.org/1999/xlink" overflow="hidden"><defs><clipPath id="clip0"><rect x="1476" y="967" width="222" height="333"/></clipPath><clipPath id="clip1"><rect x="1476" y="967" width="222" height="333"/></clipPath><clipPath id="clip2"><rect x="1476" y="967" width="222" height="333"/></clipPath></defs><g transform="translate(-1360 -906)"><g clip-path="url(#clip0)"><g clip-path="url(#clip1)"><g clip-path="url(#clip2)"><path d="M55.4889 332.933C86.1188 332.933 110.978 308.074 110.978 277.445L110.978 221.956 55.4889 221.956C24.859 221.956 0 246.815 0 277.445 0 308.074 24.859 332.933 55.4889 332.933Z" fill="#0ACF83" transform="matrix(1 0 0 1.0002 1476.02 967)"/><path d="M0 166.467C0 135.837 24.859 110.978 55.4889 110.978L110.978 110.978 110.978 221.956 55.4889 221.956C24.859 221.956 0 197.097 0 166.467Z" fill="#A259FF" transform="matrix(1 0 0 1.0002 1476.02 967)"/><path d="M0 55.4889C0 24.859 24.859 0 55.4889 0L110.978 0 110.978 110.978 55.4889 110.978C24.859 110.978 0 86.1188 0 55.4889Z" fill="#F24E1E" transform="matrix(1 0 0 1.0002 1476.02 967)"/><path d="M110.978 0 166.467 0C197.097 0 221.956 24.859 221.956 55.4889 221.956 86.1188 197.097 110.978 166.467 110.978L110.978 110.978 110.978 0Z" fill="#FF7262" transform="matrix(1 0 0 1.0002 1476.02 967)"/><path d="M221.956 166.467C221.956 197.097 197.097 221.956 166.467 221.956 135.837 221.956 110.978 197.097 110.978 166.467 110.978 135.837 135.837 110.978 166.467 110.978 197.097 110.978 221.956 135.837 221.956 166.467Z" fill="#1ABCFE" transform="matrix(1 0 0 1.0002 1476.02 967)"/></g></g></g></g></svg>