<svg width="455" height="455" xmlns="http://www.w3.org/2000/svg" xmlns:xlink="http://www.w3.org/1999/xlink" overflow="hidden"><g transform="translate(1 -1360)"><g><g><g><path d="M405.619 1570.92 243.075 1408.39C233.716 1399.02 218.535 1399.02 209.167 1408.39L175.418 1442.14 218.231 1484.96C228.181 1481.59 239.591 1483.85 247.519 1491.78 255.497 1499.76 257.733 1511.27 254.286 1521.26L295.555 1562.52C305.542 1559.08 317.056 1561.31 325.03 1569.29 336.171 1580.43 336.171 1598.49 325.03 1609.64 313.88 1620.78 295.826 1620.78 284.672 1609.64 276.294 1601.25 274.219 1588.93 278.469 1578.61L239.98 1540.13 239.98 1641.4C242.694 1642.75 245.259 1644.54 247.519 1646.8 258.661 1657.94 258.661 1675.99 247.519 1687.15 236.378 1698.29 218.312 1698.29 207.178 1687.15 196.036 1675.99 196.036 1657.94 207.178 1646.8 209.933 1644.05 213.122 1641.96 216.525 1640.57L216.525 1538.35C213.122 1536.96 209.941 1534.89 207.178 1532.12 198.739 1523.69 196.709 1511.3 201.036 1500.93L158.831 1458.72 47.373 1570.17C38.0099 1579.54 38.0099 1594.72 47.373 1604.08L209.925 1766.62C219.284 1775.99 234.461 1775.99 243.833 1766.62L405.619 1604.84C414.982 1595.47 414.982 1580.28 405.619 1570.92Z" fill="#FFFFFF"/></g></g></g></g></svg>