<svg width="455" height="455" xmlns="http://www.w3.org/2000/svg" xmlns:xlink="http://www.w3.org/1999/xlink" overflow="hidden"><g transform="translate(-453 -1360)"><g><g><g><path d="M173.5 0C77.6413 0 0 77.6413 0 173.5 0 250.274 49.6644 315.119 118.631 338.108 127.306 339.626 130.559 334.421 130.559 329.867 130.559 325.746 130.342 312.083 130.342 297.553 86.75 305.577 75.4725 286.926 72.0025 277.166 70.0506 272.178 61.5925 256.78 54.2188 252.659 48.1463 249.406 39.4713 241.382 54.0019 241.165 67.665 240.948 77.4244 253.744 80.6775 258.949 96.2925 285.191 121.233 277.817 131.209 273.263 132.727 261.985 137.282 254.394 142.27 250.057 103.666 245.719 63.3275 230.755 63.3275 164.391 63.3275 145.523 70.0506 129.908 81.1113 117.763 79.3763 113.426 73.3037 95.6419 82.8462 71.7856 82.8462 71.7856 97.3769 67.2312 130.559 89.5694 144.439 85.6656 159.186 83.7137 173.934 83.7137 188.681 83.7137 203.429 85.6656 217.309 89.5694 250.491 67.0144 265.021 71.7856 265.021 71.7856 274.564 95.6419 268.491 113.426 266.756 117.763 277.817 129.908 284.54 145.306 284.54 164.391 284.54 230.972 243.984 245.719 205.381 250.057 211.67 255.479 217.092 265.889 217.092 282.154 217.092 305.36 216.875 324.011 216.875 329.867 216.875 334.421 220.128 339.843 228.803 338.108 297.336 315.119 347 250.057 347 173.5 347 77.6413 269.359 0 173.5 0Z" fill="#FFFFFF" fill-rule="evenodd" transform="matrix(1.00288 0 0 1 506 1414)"/></g></g></g></g></svg>