<svg width="455" height="455" xmlns="http://www.w3.org/2000/svg" xmlns:xlink="http://www.w3.org/1999/xlink" overflow="hidden"><defs><clipPath id="clip0"><rect x="969" y="1427" width="330" height="318"/></clipPath><clipPath id="clip1"><rect x="969" y="1427" width="330" height="318"/></clipPath><clipPath id="clip2"><rect x="969" y="1427" width="330" height="318"/></clipPath></defs><g transform="translate(-906 -1360)"><g clip-path="url(#clip0)"><g clip-path="url(#clip1)"><g clip-path="url(#clip2)"><path d="M485.879 293.3 485.415 292.115 440.509 174.919C439.595 172.622 437.977 170.673 435.888 169.352 431.605 166.694 426.118 166.989 422.144 170.091 420.225 171.649 418.834 173.761 418.159 176.138L387.837 268.906 265.058 268.906 234.736 176.138C234.078 173.749 232.684 171.626 230.751 170.074 226.777 166.971 221.29 166.676 217.008 169.335 214.922 170.661 213.305 172.608 212.386 174.901L167.394 292.046 166.947 293.232C153.667 327.932 164.945 367.231 194.606 389.607L194.76 389.727 195.173 390.019 263.58 441.247 297.423 466.862 318.038 482.426C322.995 486.188 329.849 486.188 334.805 482.426L355.42 466.862 389.263 441.247 458.083 389.71 458.255 389.573C487.846 367.195 499.102 327.963 485.879 293.3Z" fill="#FFFFFF" transform="matrix(1 0 0 1.00066 807.595 1259.36)"/><path d="M485.879 293.3 485.415 292.115C463.534 296.606 442.914 305.875 425.03 319.258L326.405 393.833C359.99 419.241 389.229 441.316 389.229 441.316L458.049 389.779 458.221 389.641C487.855 367.264 499.129 327.99 485.879 293.3Z" fill="#FFFFFF" transform="matrix(1 0 0 1.00066 807.595 1259.36)"/><path d="M263.58 441.316 297.423 466.93 318.038 482.495C322.995 486.257 329.849 486.257 334.805 482.495L355.42 466.93 389.263 441.316C389.263 441.316 359.99 419.172 326.405 393.833 292.819 419.172 263.58 441.316 263.58 441.316Z" fill="#FFFFFF" transform="matrix(1 0 0 1.00066 807.595 1259.36)"/><path d="M227.762 319.258C209.892 305.848 189.277 296.554 167.394 292.046L166.947 293.232C153.667 327.932 164.945 367.231 194.606 389.607L194.76 389.727 195.173 390.019 263.58 441.247C263.58 441.247 292.785 419.172 326.405 393.764Z" fill="#FFFFFF" transform="matrix(1 0 0 1.00066 807.595 1259.36)"/></g></g></g></g></svg>