<svg width="455" height="455" xmlns="http://www.w3.org/2000/svg" xmlns:xlink="http://www.w3.org/1999/xlink" overflow="hidden"><g transform="translate(1 1)"><path d="M130.18 123.891 130.86 134.086 140.39 240.117 226.16 240.117 226.84 240.117 273.809 240.117 269.044 289.734 226.16 301.289 183.275 289.734 180.552 259.148 160.131 259.148 142.432 259.148 147.197 319.641 226.16 341.391 226.84 341.391 226.84 341.203 305.122 319.641 305.803 312.844 314.652 211.57 316.013 201.375 305.122 201.375 226.84 201.375 226.16 201.375 175.787 201.375 172.384 161.953 226.16 161.953 226.84 161.953 319.417 161.953 320.098 153.797 322.14 134.086 322.82 123.891 226.84 123.891 226.16 123.891ZM73 60 380 60 352.091 372.656 226.16 408 100.909 372.656Z" fill="#FFFFFF" fill-rule="evenodd"/></g></svg>