<svg width="455" height="455" xmlns="http://www.w3.org/2000/svg" xmlns:xlink="http://www.w3.org/1999/xlink" overflow="hidden"><g transform="translate(-906 1)"><path d="M1117.85 213.553 1117.85 314.842C1117.85 329.731 1111.67 333.56 1101.89 333.56 1091.65 333.56 1087.39 326.541 1082.71 318.239L1058.47 332.919C1065.49 347.785 1079.3 360.128 1103.15 360.128 1129.55 360.128 1147.63 346.089 1147.63 315.245L1147.63 213.553ZM1216.27 211.853C1189.67 211.853 1172.65 228.86 1172.65 251.201 1172.65 275.454 1186.93 286.926 1208.42 296.084L1215.87 299.279C1229.46 305.222 1237.56 308.839 1237.56 319.054 1237.56 327.578 1229.67 333.747 1217.33 333.747 1202.64 333.747 1194.33 326.083 1187.94 315.658L1163.74 329.721C1172.48 347 1190.35 360.183 1218.02 360.183 1246.31 360.183 1267.38 345.491 1267.38 318.672 1267.38 293.795 1253.09 282.73 1227.78 271.876L1220.33 268.686C1207.55 263.151 1202.02 259.533 1202.02 250.597 1202.02 243.366 1207.55 237.831 1216.27 237.831 1224.83 237.831 1230.34 241.439 1235.44 250.597L1258.64 235.703C1248.83 218.444 1235.21 211.853 1216.27 211.853ZM975 68 1292 68 1292 385 975 385Z" fill="#FFFFFF" fill-rule="evenodd"/></g></svg>