<svg width="455" height="455" xmlns="http://www.w3.org/2000/svg" xmlns:xlink="http://www.w3.org/1999/xlink" overflow="hidden"><g transform="translate(-453 -906)"><path d="M679.102 1130.74 679.102 1130.74 679.103 1130.74ZM638.906 1095.53 638.906 1095.53 638.906 1095.53 646.014 1118.71C653.591 1141.71 662.546 1164.15 672.626 1186.12L687.396 1186.12C701.388 1155.2 713.621 1125.25 721.099 1095.53L704.401 1095.53C698.119 1119.45 690.696 1142.78 680.57 1166.44 671.63 1145.41 663.617 1122.1 656.576 1095.53L638.906 1095.53ZM740.291 1049.5 740.291 1217.99 779.754 1217.99 779.754 1205 755.568 1205 755.568 1062.14 779.581 1062.14 779.581 1049.5ZM580.622 1049.5 580.622 1062.14 604.636 1062.14 604.636 1205 580.449 1205 580.449 1217.99 619.913 1217.99 619.913 1049.5ZM637.163 975 814.644 975C816.987 974.999 819.317 975.337 821.563 976.003L821.561 976.005 821.563 976.004C831.643 978.985 839 988.309 839 999.357L839 1268.65C839 1282.1 828.096 1293 814.646 1293L722.517 1293 722.518 1293 545.354 1293C540.426 1293.01 535.614 1291.51 531.557 1288.71L531.559 1288.71 527.219 1284.9C523.353 1280.59 521 1274.89 521 1268.64L521 999.356C521 985.905 531.904 975.001 545.354 975.001L637.161 975.001 637.165 975.006Z" fill="#FFFFFF" fill-rule="evenodd"/></g></svg>