<svg width="455" height="454" xmlns="http://www.w3.org/2000/svg" xmlns:xlink="http://www.w3.org/1999/xlink" overflow="hidden"><defs><clipPath id="clip0"><rect x="131" y="1837" width="191" height="408"/></clipPath><clipPath id="clip1"><rect x="131" y="1837" width="191" height="408"/></clipPath><clipPath id="clip2"><rect x="131" y="1837" width="191" height="408"/></clipPath></defs><g transform="translate(1 -1814)"><g clip-path="url(#clip0)"><g clip-path="url(#clip1)"><g clip-path="url(#clip2)"><path d="M107.4 359.203 105.968 360.307C104.706 379.991 101.527 407.915 101.527 407.915L88.845 407.915C88.845 407.915 85.6776 379.833 84.4033 360.307L82.9835 359.36C82.9835 359.36-87.1703 232.883 59.8287 45.4601 76.952 25.1572 91.6968 4.52659 94.7186 0.242713 95.0341-0.0849494 95.5074-0.0849494 95.823 0.242713 98.8326 4.52659 113.577 25.1572 130.713 45.4601 277.712 232.883 107.558 359.36 107.4 359.203ZM104.864 346.667 104.864 346.351 95.6652 142.266C95.6652 141.635 94.7186 141.635 94.7186 142.266L85.5198 346.351 85.5198 346.667C87.5829 349.992 95.1919 356.509 95.1919 356.509 95.1919 356.509 102.801 349.992 104.864 346.667Z" fill="#FFFFFF" fill-rule="evenodd" transform="matrix(1.00247 0 0 1 131 1837)"/></g></g></g></g></svg>