<svg width="455" height="454" xmlns="http://www.w3.org/2000/svg" xmlns:xlink="http://www.w3.org/1999/xlink" overflow="hidden"><g transform="translate(-453 -1814)"><g><g><g><path d="M347.949 286.766C327.398 286.254 311.471 288.309 298.112 293.96 294.258 295.5 288.092 295.501 287.578 300.383 289.634 302.438 289.891 305.778 291.689 308.603 294.775 313.74 300.166 320.677 305.047 324.275 310.441 328.385 315.838 332.494 321.488 336.091 331.507 342.257 342.812 345.852 352.574 352.018 358.227 355.612 363.875 360.24 369.527 364.092 372.354 366.145 374.151 369.488 377.749 370.771L377.749 370.001C375.949 367.688 375.435 364.349 373.638 361.78 371.072 359.211 368.5 356.898 365.931 354.329 358.481 344.312 349.234 335.577 339.215 328.385 330.995 322.732 313.011 315.026 309.672 305.52 309.672 305.52 309.414 305.265 309.158 305.008 314.809 304.494 321.488 302.438 326.884 300.897 335.618 298.583 343.581 299.098 352.574 296.786 356.683 295.758 360.794 294.474 364.903 293.189L364.903 290.878C360.281 286.254 356.941 280.089 352.06 275.721 338.958 264.415 324.571 253.371 309.672 244.123 301.707 238.985 291.431 235.645 282.954 231.278 279.874 229.735 274.734 228.966 272.937 226.397 268.311 220.746 265.741 213.297 262.403 206.617 254.955 192.486 247.76 176.817 241.337 161.918 236.715 151.898 233.889 141.878 228.237 132.632 201.777 88.9599 173.004 62.4999 128.82 36.5523 119.314 31.1584 108.011 28.8461 95.9367 26.0215 89.5166 25.7631 83.0921 25.2507 76.6705 24.9923 72.5598 23.1938 68.449 18.3138 64.8521 16.0015 50.212 6.75232 12.4459-13.2832 1.6567 13.1768-5.28019 29.8738 11.9336 46.3139 17.8398 54.7938 22.2105 60.7015 27.8598 67.38 30.9428 74.0599 32.7413 78.4247 33.2537 83.0522 35.0521 87.6753 39.1643 98.9755 43.0152 111.566 48.4121 122.1 51.2382 127.494 54.3198 133.145 57.9167 138.026 59.9721 140.851 63.5675 142.137 64.3397 146.76 60.7443 151.898 60.4859 159.606 58.4291 166.028 49.1813 195.057 52.7797 231.021 65.8798 252.343 69.9891 258.763 79.7521 272.897 92.8536 267.5 104.415 262.877 101.846 248.234 105.183 235.389 105.957 232.303 105.443 230.251 106.983 228.195L106.983 228.711C110.58 235.902 114.175 242.84 117.515 250.032 125.48 262.618 139.351 275.721 150.911 284.457 157.078 289.078 161.958 297.043 169.666 299.869L169.666 299.097 169.151 299.097C167.609 296.785 165.297 295.758 163.243 293.958 158.62 289.337 153.48 283.685 149.884 278.546 139.097 264.159 129.589 248.232 121.112 231.791 117.003 223.829 113.404 215.094 110.066 207.131 108.523 204.045 108.523 199.423 105.955 197.883 102.101 203.534 96.4505 208.415 93.6244 215.351 88.7458 226.397 88.2305 240.012 86.4321 254.14 85.4044 254.4 85.9167 254.14 85.4029 254.657 77.1843 252.599 74.3582 244.123 71.2737 236.929 63.566 218.691 62.2814 189.405 68.9629 168.34 70.7613 162.945 78.469 145.991 75.3859 140.852 73.8444 135.971 68.7045 133.145 65.8798 129.292 62.5413 124.411 58.9429 118.248 56.6321 112.851 50.466 98.4646 47.3829 82.5369 40.7044 68.1507 37.6213 61.4708 32.2289 54.5368 27.8598 48.3707 22.9797 41.4353 17.5844 36.5523 13.7306 28.3323 12.4474 25.5076 10.6475 20.883 12.7029 17.8 13.2167 15.7446 14.2429 14.9753 16.2998 14.4615 19.6398 11.6338 29.1459 15.2307 32.4829 16.7723 41.989 20.6231 49.9521 24.223 57.9167 29.6169 61.5121 32.1861 65.3659 37.0676 69.9891 38.3522L75.3844 38.3522C83.6059 40.1492 92.8522 38.8661 100.56 41.1769 114.177 45.5431 126.506 51.9661 137.554 58.903 171.207 80.2246 198.949 110.538 217.704 146.76 220.787 152.666 222.071 158.065 224.897 164.228 230.294 176.817 236.972 189.661 242.364 201.992 247.76 214.065 252.897 226.397 260.604 236.417 264.458 241.809 279.871 244.637 286.807 247.463 291.946 249.774 299.911 251.831 304.534 254.655 313.268 260.048 322.001 266.217 330.223 272.123 334.334 275.206 347.177 281.629 347.949 286.766Z" fill="#FFFFFF" transform="matrix(1 0 0 1.00001 491 1854.95)"/><path d="M85.9153 63.5247C81.5491 63.5247 78.4675 64.0415 75.3844 64.8108L75.3844 65.3246 75.8983 65.3246C77.9551 69.4354 81.5491 72.2615 84.1168 75.8569 86.1737 79.9662 87.9706 84.0784 90.0275 88.1892 90.2829 87.9308 90.5399 87.6753 90.5399 87.6753 94.1382 85.1046 95.9352 80.9954 95.9352 74.8292 94.3937 73.0323 94.1368 71.2338 92.8522 69.4354 91.3121 66.8647 87.9706 65.5815 85.9153 63.5247Z" fill="#FFFFFF" transform="matrix(1 0 0 1.00001 491 1854.95)"/></g></g></g></g></svg>