<svg width="455" height="455" xmlns="http://www.w3.org/2000/svg" xmlns:xlink="http://www.w3.org/1999/xlink" overflow="hidden"><defs><clipPath id="clip0"><rect x="506" y="960" width="348" height="348"/></clipPath><clipPath id="clip1"><rect x="506" y="960" width="348" height="348"/></clipPath><clipPath id="clip2"><rect x="506" y="960" width="348" height="348"/></clipPath></defs><g transform="translate(-453 -906)"><g clip-path="url(#clip0)"><g clip-path="url(#clip1)"><g clip-path="url(#clip2)"><path d="M668.604 960.094C667.856 960.162 665.474 960.4 663.331 960.57 613.904 965.025 567.606 991.691 538.283 1032.68 521.954 1055.46 511.511 1081.31 507.565 1108.69 506.17 1118.25 506 1121.08 506 1134.03 506 1146.99 506.17 1149.82 507.565 1159.37 517.022 1224.71 563.524 1279.61 626.592 1299.95 637.886 1303.59 649.792 1306.07 663.331 1307.57 668.604 1308.14 691.396 1308.14 696.669 1307.57 720.039 1304.98 739.837 1299.2 759.363 1289.23 762.357 1287.7 762.935 1287.29 762.527 1286.95 762.255 1286.75 749.498 1269.64 734.19 1248.96L706.364 1211.38 671.496 1159.78C652.31 1131.42 636.526 1108.22 636.389 1108.22 636.253 1108.18 636.117 1131.11 636.049 1159.1 635.947 1208.11 635.913 1210.09 635.301 1211.24 634.416 1212.91 633.736 1213.59 632.307 1214.34 631.219 1214.88 630.266 1214.98 625.13 1214.98L619.245 1214.98 617.68 1214C616.659 1213.35 615.911 1212.5 615.401 1211.51L614.686 1209.98 614.754 1141.79 614.856 1073.56 615.911 1072.23C616.455 1071.52 617.612 1070.6 618.428 1070.16 619.823 1069.48 620.367 1069.41 626.252 1069.41 633.192 1069.41 634.348 1069.68 636.151 1071.66 636.662 1072.2 655.541 1100.63 678.129 1134.88 700.717 1169.14 731.605 1215.9 746.777 1238.86L774.331 1280.59 775.725 1279.68C788.074 1271.65 801.137 1260.22 811.478 1248.32 833.487 1223.05 847.673 1192.23 852.435 1159.37 853.83 1149.82 854 1146.99 854 1134.03 854 1121.08 853.83 1118.25 852.435 1108.69 842.978 1043.36 796.476 988.46 733.408 968.121 722.284 964.515 710.446 962.032 697.179 960.536 693.913 960.196 671.428 959.822 668.604 960.094L668.604 960.094ZM739.837 1065.33C741.47 1066.14 742.797 1067.71 743.273 1069.34 743.545 1070.23 743.613 1089.14 743.545 1131.76L743.443 1192.91 732.659 1176.38 721.842 1159.85 721.842 1115.4C721.842 1086.65 721.978 1070.5 722.182 1069.72 722.726 1067.81 723.917 1066.31 725.55 1065.43 726.944 1064.72 727.455 1064.65 732.795 1064.65 737.83 1064.65 738.714 1064.72 739.837 1065.33Z" fill="#FFFFFF"/></g></g></g></g></svg>