<svg width="455" height="455" xmlns="http://www.w3.org/2000/svg" xmlns:xlink="http://www.w3.org/1999/xlink" overflow="hidden"><g transform="translate(-1360 1)"><path d="M1502.05 218.451 1502.05 243.887 1541.61 243.887 1541.61 357.139 1573.11 357.139 1573.11 243.887 1612.86 243.887 1612.86 218.451ZM1679.17 215.355C1671.81 215.355 1664.83 216.147 1658.25 217.729 1651.66 219.31 1645.86 221.78 1640.85 225.138 1635.85 228.496 1631.89 232.774 1628.99 237.972 1626.08 243.17 1624.63 249.385 1624.63 256.617 1624.63 265.851 1627.29 273.729 1632.62 280.251 1637.95 286.772 1646.04 292.293 1656.89 296.813 1661.15 298.557 1665.13 300.267 1668.81 301.947 1672.49 303.626 1675.67 305.369 1678.35 307.177 1681.03 308.985 1683.15 310.955 1684.7 313.086 1686.25 315.216 1687.02 317.638 1687.02 320.35 1687.02 322.352 1686.54 324.208 1685.57 325.919 1684.6 327.63 1683.13 329.115 1681.16 330.374 1679.19 331.634 1676.74 332.618 1673.8 333.328 1670.86 334.039 1667.42 334.394 1663.48 334.394 1656.76 334.394 1650.11 333.216 1643.52 330.859 1636.93 328.502 1630.83 324.967 1625.21 320.253L1625.21 351.247C1630.25 353.831 1636.2 355.767 1643.08 357.059 1649.96 358.35 1657.21 358.996 1664.83 358.996 1672.26 358.996 1679.32 358.286 1686 356.865 1692.69 355.445 1698.55 353.104 1703.59 349.843 1708.63 346.582 1712.62 342.32 1715.56 337.057 1718.49 331.795 1719.96 325.289 1719.96 317.541 1719.96 311.923 1719.12 306.999 1717.44 302.77 1715.77 298.541 1713.34 294.779 1710.18 291.486 1707.01 288.193 1703.22 285.238 1698.79 282.623 1694.37 280.008 1689.38 277.538 1683.82 275.214 1679.76 273.535 1676.11 271.905 1672.88 270.323 1669.65 268.74 1666.9 267.126 1664.64 265.48 1662.38 263.833 1660.64 262.089 1659.41 260.249 1658.18 258.409 1657.57 256.326 1657.57 254.002 1657.57 251.871 1658.12 249.95 1659.22 248.239 1660.31 246.527 1661.86 245.059 1663.87 243.832 1665.87 242.605 1668.32 241.652 1671.23 240.974 1674.14 240.296 1677.37 239.958 1680.92 239.958 1683.5 239.958 1686.23 240.151 1689.1 240.538 1691.98 240.926 1694.87 241.523 1697.78 242.33 1700.68 243.137 1703.51 244.155 1706.25 245.381 1709 246.608 1711.53 248.029 1713.86 249.643L1713.86 220.682C1709.14 218.875 1703.99 217.535 1698.41 216.663 1692.82 215.791 1686.41 215.355 1679.17 215.355ZM1459.86 68 1715.14 68C1732.18 68 1746 81.8193 1746 98.8663L1746 354.134C1746 371.181 1732.18 385 1715.14 385L1459.86 385C1442.82 385 1429 371.181 1429 354.134L1429 98.8663C1429 81.8193 1442.82 68 1459.86 68Z" fill="#FFFFFF" fill-rule="evenodd"/></g></svg>