<svg width="1890" height="378" xmlns="http://www.w3.org/2000/svg" xmlns:xlink="http://www.w3.org/1999/xlink" xml:space="preserve" overflow="hidden"><defs><clipPath id="clip0"><rect x="263" y="930" width="1890" height="378"/></clipPath></defs><g clip-path="url(#clip0)" transform="translate(-263 -930)"><text fill="#FFFFFF" font-family="Poppins Medium,Poppins Medium_MSFontService,sans-serif" font-weight="500" font-size="1100" transform="matrix(0.346331 0 0 0.346462 272.951 1264)">c</text><text fill="#FFFFFF" font-family="Poppins Medium,Poppins Medium_MSFontService,sans-serif" font-weight="500" font-size="1100" transform="matrix(0.346331 0 0 0.346462 821.647 1264)">rdvisor</text><path d="M485.635 159.34 524.196 159.34 524.196 285.211 485.635 285.211Z" stroke="#FFFFFF" stroke-width="0.113378" stroke-miterlimit="8" fill="#FFFFFF" transform="matrix(1.00027 0 0 1 296.266 937.598)"/><path d="M215.799 231.323 254.361 231.323 254.361 285.211 215.799 285.211Z" stroke="#FFFFFF" stroke-width="0.113378" stroke-miterlimit="8" fill="#FFFFFF" transform="matrix(1.00027 0 0 1 296.266 937.598)"/><path d="M262.074 185.049 524.196 185.049 524.196 223.61 262.074 223.61Z" stroke="#FFFFFF" stroke-width="0.113378" stroke-miterlimit="8" fill="#FFFFFF" transform="matrix(1.00027 0 0 1 296.266 937.598)"/><path d="M262.074 292.924 477.923 292.924 477.923 331.485 262.074 331.485Z" stroke="#FFFFFF" stroke-width="0.113378" stroke-miterlimit="8" fill="#FFFFFF" transform="matrix(1.00027 0 0 1 296.266 937.598)"/><path d="M262.328 331.484C236.771 331.625 215.94 311.043 215.8 285.513 215.798 285.258 215.799 285.002 215.802 284.747L254.369 285.175C254.322 289.404 257.733 292.869 261.988 292.916 262.03 292.917 262.073 292.917 262.116 292.917Z" stroke="#FFFFFF" stroke-width="0.113378" stroke-miterlimit="8" fill="#FFFFFF" fill-rule="evenodd" transform="matrix(1.00027 0 0 1 296.266 937.598)"/><path d="M215.8 231.528C215.66 205.998 236.263 185.19 261.82 185.05 262.075 185.048 262.331 185.049 262.586 185.051L262.159 223.618C257.903 223.572 254.416 226.961 254.369 231.19 254.368 231.231 254.368 231.273 254.368 231.316Z" stroke="#FFFFFF" stroke-width="0.113378" stroke-miterlimit="8" fill="#FFFFFF" fill-rule="evenodd" transform="matrix(1.00027 0 0 1 296.266 937.598)"/><path d="M524.196 285.006C524.335 310.536 503.734 331.344 478.176 331.484 477.923 331.486 477.667 331.485 477.41 331.483L477.836 292.916C482.094 292.962 485.58 289.573 485.628 285.344 485.628 285.303 485.628 285.261 485.628 285.218Z" stroke="#FFFFFF" stroke-width="0.113378" stroke-miterlimit="8" fill="#FFFFFF" fill-rule="evenodd" transform="matrix(1.00027 0 0 1 296.266 937.598)"/><path d="M477.67 113.067C503.225 112.927 524.054 133.529 524.196 159.086 524.196 159.343 524.196 159.598 524.193 159.854L485.587 159.425C485.632 155.194 482.24 151.724 478.006 151.677 477.965 151.676 477.923 151.676 477.881 151.676Z" stroke="#FFFFFF" stroke-width="0.113378" stroke-miterlimit="8" fill="#FFFFFF" fill-rule="evenodd" transform="matrix(1.00027 0 0 1 296.266 937.598)"/><path d="M215.8 159.594C215.66 134.038 236.263 113.207 261.82 113.067 262.076 113.065 262.331 113.066 262.587 113.069L262.159 151.677C257.926 151.63 254.457 155.024 254.41 159.256 254.41 159.298 254.41 159.34 254.41 159.383Z" stroke="#FFFFFF" stroke-width="0.113378" stroke-miterlimit="8" fill="#FFFFFF" fill-rule="evenodd" transform="matrix(1.00027 0 0 1 296.266 937.598)"/><path d="M262.074 113.066 477.923 113.066 477.923 151.628 262.074 151.628Z" stroke="#FFFFFF" stroke-width="0.113378" stroke-miterlimit="8" fill="#FFFFFF" transform="matrix(1.00027 0 0 1 296.266 937.598)"/><path d="M215.799 159.34 254.361 159.34 254.361 179.907 215.799 179.907Z" stroke="#FFFFFF" stroke-width="0.113378" stroke-miterlimit="8" fill="#FFFFFF" transform="matrix(1.00027 0 0 1 296.266 937.598)"/></g></svg>